<svg width="30" height="30" viewBox="0 0 34 34" fill="none" xmlns="http://www.w3.org/2000/svg">
<path d="M25.2417 19.296C24.6135 19.9124 24.2546 20.7994 24.3443 21.7465C24.4789 23.3702 25.9595 24.5579 27.5748 24.5579H30.4164V26.347C30.4164 29.459 27.8889 31.9998 24.793 31.9998H7.62346C4.52757 31.9998 2 29.459 2 26.347V16.229C2 13.117 4.52757 10.5762 7.62346 10.5762H24.793C27.8889 10.5762 30.4164 13.117 30.4164 16.229V18.3939H27.3953C26.5578 18.3939 25.795 18.7247 25.2417 19.296Z" stroke="#29e589" stroke-width="3" stroke-linecap="round" stroke-linejoin="round"/>
<path d="M32 19.928V23.025C32 23.8519 31.3419 24.5285 30.5044 24.5585H27.573C25.9578 24.5585 24.4771 23.3708 24.3425 21.7471C24.2528 20.8 24.6117 19.913 25.2399 19.2966C25.7932 18.7253 26.556 18.3945 27.3935 18.3945H30.5044C31.3419 18.4246 32 19.1011 32 19.928Z" stroke="#29e589" stroke-width="3" stroke-linecap="round" stroke-linejoin="round"/>
<path d="M2 17.582V10.7114C2 8.92239 3.09179 7.32871 4.75191 6.69727L16.627 2.18703C18.4815 1.48043 20.4707 2.86361 20.4707 4.86315V10.5761" stroke="#29e589" stroke-width="3" stroke-linecap="round" stroke-linejoin="round"/>
<path d="M8.73022 16.9658H19.1994" stroke="#29e589" stroke-width="3" stroke-linecap="round" stroke-linejoin="round"/>
</svg>
