<svg width="28" height="28" viewBox="0 0 35 35" fill="none" xmlns="http://www.w3.org/2000/svg">
<mask id="mask0_2742_101" style="mask-type:alpha" maskUnits="userSpaceOnUse" x="0" y="0" width="35" height="35">
<rect width="35" height="35" fill="#D9D9D9"/>
</mask>
<g mask="url(#mask0_2742_101)">
<path d="M24.2813 18.9584L16.0417 10.7188L24.2813 2.47919L32.5208 10.7188L24.2813 18.9584ZM4.375 16.0417V4.37502H16.0417V16.0417H4.375ZM18.9583 30.625V18.9584H30.625V30.625H18.9583ZM4.375 30.625V18.9584H16.0417V30.625H4.375ZM7.29167 13.125H13.125V7.29169H7.29167V13.125ZM24.3177 14.875L28.4375 10.7552L24.3177 6.63544L20.1979 10.7552L24.3177 14.875ZM21.875 27.7084H27.7083V21.875H21.875V27.7084ZM7.29167 27.7084H13.125V21.875H7.29167V27.7084Z" fill="white"/>
</g>
</svg>
